<svg width="700" height="700" 
     viewBox="0 0 30 30"  xmlns="http://www.w3.org/2000/svg" version="1.1">
 <g>
  <title>Layer 1</title>
  <g id="svg_79" stroke="null">
   <path fill="#4c4c4c" d="m23.57029,10.20834l1.79548,-0.44864c-0.45101,-0.96004 -1.02682,-1.85026 -1.70886,-2.64728c-0.67258,-0.78613 -1.44724,-1.48255 -2.30268,-2.06855c0.18703,0.23833 0.3755,0.49578 0.56197,0.78319c0.65749,1.01462 1.3439,2.46951 1.65413,4.38124l-0.00004,0.00004z" id="svg_25" stroke="null"/>
   <path fill="#4c4c4c" d="m22.94246,18.00301c0.14118,0.09024 0.27963,0.18848 0.41044,0.30619l0.01583,0.01583c0.05294,0.05768 0.94802,1.0503 1.36774,2.55832c0.92147,-1.49601 1.51585,-3.21437 1.68543,-5.05564c-0.6695,-0.441 -1.6681,-0.85999 -2.83977,-1.24567c-0.02729,0.36987 -0.15263,1.6954 -0.63964,3.4212l-0.00002,-0.00023l-0.00001,0z" id="svg_26" stroke="null"/>
   <path fill="#4c4c4c" d="m23.10687,10.31034c-0.29291,-1.83749 -0.94802,-3.23328 -1.57351,-4.20477c-0.53779,-0.83326 -1.1087,-1.45037 -1.55931,-1.86954c-1.57663,-0.78869 -3.35316,-1.23603 -5.23635,-1.23603c-1.30715,0 -2.56303,0.21705 -3.73721,0.61129c0.9686,0.38787 2.15932,1.03083 3.29494,2.09328c0.05367,0.0493 5.63362,5.05657 8.81138,4.60577l0.00004,0l0.00002,0z" id="svg_27" stroke="null"/>
   <path fill="#4c4c4c" d="m25.56133,10.1981l-1.92482,0.48102c0.1259,1.02081 0.14264,2.16351 -0.00436,3.43047c1.12067,0.3686 2.10329,0.77011 2.82775,1.19803c0.0091,-0.19011 0.01455,-0.37951 0.01455,-0.57127c0,-1.60956 -0.3262,-3.14214 -0.91309,-4.53824l-0.00003,0l0,-0.00001z" id="svg_28" stroke="null"/>
   <path fill="#4c4c4c" d="m21.64863,20.24324c0.30237,-0.69787 0.54068,-1.3752 0.73248,-2.01108c-1.43598,-0.66969 -3.26565,-0.08132 -3.28712,-0.07441l-0.04075,0.00855c-0.38569,0.05603 -4.79436,1.66978 -7.66659,2.74406c-1.92063,0.85179 -4.06072,1.20204 -5.65411,1.34483c0.48302,0.57729 1.01643,1.10996 1.60006,1.58516c2.01997,1.64574 4.59683,2.63289 7.40484,2.63289c0.72772,0 1.43835,-0.06986 2.12933,-0.19612c2.47351,-1.73489 3.93753,-4.08707 4.78178,-6.0337l0.00009,-0.00018l-0.00001,0z" id="svg_29" stroke="null"/>
   <path fill="#4c4c4c" d="m22.80228,18.4776c-0.19121,0.61785 -0.42536,1.27571 -0.71934,1.95304c-0.77104,1.77765 -2.04619,3.88075 -4.09816,5.58471c2.6218,-0.75357 4.86608,-2.39475 6.38766,-4.57917c-0.31165,-1.57244 -1.25369,-2.68091 -1.34484,-2.78388c-0.07204,-0.06495 -0.14845,-0.12008 -0.22523,-0.17447l-0.0001,-0.00023l0.00001,0z" id="svg_30" stroke="null"/>
   <path fill="#4c4c4c" d="m11.2146,20.46959c0.72647,-0.27144 7.04715,-2.62907 7.74623,-2.76642c0.21304,-0.06877 2.0236,-0.60929 3.55147,0.06932c0.52452,-1.90153 0.6029,-3.29858 0.60383,-3.31786l0.00183,-0.02111c-4.46093,-1.38847 -10.89652,-2.32107 -10.98873,-2.33397c-4.76268,-0.56471 -7.45328,-0.07077 -8.9362,0.52578c-0.12499,0.68552 -0.19303,1.39047 -0.19303,2.11186c0,2.65674 0.88598,5.10407 2.37403,7.06997c1.59028,-0.12335 3.85495,-0.45483 5.82597,-1.33156l0.0146,-0.00601z" id="svg_31" stroke="null"/>
   <path fill="#4c4c4c" d="m12.19219,11.63119c0.37714,0.05348 6.53483,0.94569 10.98128,2.3316c0.12863,-1.17311 0.11352,-2.23356 -0.00182,-3.18396c-0.15537,0.02165 -0.31328,0.03566 -0.47632,0.03566c-3.41976,0 -8.49328,-4.55589 -8.72103,-4.76175c-1.28899,-1.20604 -2.66838,-1.84895 -3.66264,-2.18662c-3.49032,1.42252 -6.14035,4.47602 -7.00524,8.2157c1.61971,-0.57836 4.35106,-0.98845 8.8859,-0.45064l-0.00014,0l0.00001,0.00001z" id="svg_32" stroke="null"/>
  </g>
 </g>

</svg>