<?xml version="1.0" standalone="no"?>
<!DOCTYPE svg PUBLIC "-//W3C//DTD SVG 20010904//EN"
 "http://www.w3.org/TR/2001/REC-SVG-20010904/DTD/svg10.dtd">
<svg version="1.0" xmlns="http://www.w3.org/2000/svg"
 width="628.000000pt" height="628.000000pt" viewBox="0 0 628.000000 628.000000"
 preserveAspectRatio="xMidYMid meet">
<metadata>
Created by potrace 1.14, written by Peter Selinger 2001-2017
</metadata>
<g transform="translate(0.000000,628.000000) scale(0.100000,-0.100000)"
fill="#000000" stroke="none">
<path d="M2940 6247 c-3 -3 -50 -8 -105 -11 -54 -4 -102 -9 -105 -11 -3 -2
-32 -6 -65 -10 -63 -6 -211 -36 -305 -62 -30 -8 -64 -16 -74 -18 -11 -3 -49
-14 -84 -26 l-65 -22 59 -23 c135 -56 335 -164 472 -256 76 -51 256 -193 307
-242 59 -56 272 -234 405 -337 666 -519 1262 -838 1683 -899 83 -12 239 -16
255 -6 20 12 -57 338 -128 538 -47 130 -121 302 -162 371 -15 26 -28 50 -28
52 0 18 -192 305 -234 352 -6 6 -21 24 -33 40 -51 67 -242 263 -256 263 -5 0
-38 14 -74 31 -122 58 -388 152 -523 185 -87 21 -263 54 -335 64 -49 6 -103
13 -120 16 -39 7 -479 16 -485 11z"/>
<path d="M1920 6007 c-319 -146 -503 -257 -740 -445 -111 -88 -360 -334 -447
-442 -284 -352 -490 -756 -599 -1170 -12 -47 -21 -86 -20 -87 1 -1 38 9 81 23
79 25 252 68 310 78 153 26 219 36 270 41 33 4 71 8 85 10 30 5 166 15 275 20
99 6 503 6 605 0 140 -7 295 -17 325 -20 17 -2 66 -6 110 -10 44 -3 94 -8 110
-10 17 -2 57 -7 90 -10 33 -3 105 -13 160 -22 55 -8 109 -17 120 -18 11 -2 52
-8 91 -14 62 -9 109 -17 289 -47 110 -19 351 -62 385 -69 14 -3 39 -7 55 -10
34 -6 128 -24 285 -56 58 -12 116 -23 130 -26 14 -2 68 -13 120 -25 52 -11
106 -22 120 -25 14 -2 50 -10 80 -18 30 -8 69 -16 86 -19 37 -7 277 -64 469
-112 123 -31 307 -82 516 -142 45 -13 66 -16 66 -8 1 6 5 52 9 101 15 173 7
684 -11 715 -2 3 -53 4 -113 3 -289 -4 -670 123 -1086 363 -169 97 -142 80
-361 225 -163 108 -246 167 -399 282 -123 93 -314 250 -447 367 -52 47 -110
97 -127 112 -178 155 -484 336 -740 437 -111 44 -115 45 -152 28z"/>
<path d="M4893 5680 c9 -14 56 -84 105 -155 207 -309 366 -704 436 -1090 3
-16 9 -42 13 -56 l8 -27 230 58 c193 48 230 60 227 74 -11 63 -276 495 -354
578 -7 7 -38 45 -69 83 -129 161 -370 386 -555 517 -47 34 -55 37 -41 18z"/>
<path d="M5707 4288 l-239 -61 7 -81 c4 -45 9 -94 11 -111 6 -52 4 -447 -2
-520 -3 -38 -7 -98 -8 -133 l-1 -63 85 -28 c205 -70 372 -139 538 -223 l112
-57 1 32 c17 406 -53 832 -198 1215 -25 65 -40 92 -52 91 -9 0 -123 -28 -254
-61z"/>
<path d="M1208 3915 c-2 -1 -66 -5 -143 -9 -77 -4 -153 -9 -170 -11 -16 -2
-55 -6 -85 -10 -30 -3 -66 -8 -80 -10 -14 -3 -43 -7 -66 -10 -161 -19 -562
-127 -580 -156 -9 -16 -27 -134 -41 -274 -10 -102 -10 -444 0 -553 36 -394
143 -766 326 -1127 76 -150 257 -436 286 -453 9 -5 40 -5 68 -1 29 3 88 10
131 14 43 4 86 8 95 10 14 2 78 11 141 19 304 40 709 145 992 258 240 95 814
308 1463 541 423 153 614 216 760 253 262 66 551 65 760 -2 44 -14 85 -27 92
-30 14 -6 30 44 73 234 26 116 57 283 75 407 3 22 7 54 10 70 7 49 16 165 12
165 -2 0 -41 11 -88 25 -181 55 -565 157 -675 181 -12 2 -77 17 -145 33 -68
16 -212 48 -319 71 -107 22 -213 45 -235 50 -41 10 -323 65 -385 75 -19 3 -42
8 -50 10 -8 2 -31 7 -50 10 -36 6 -129 22 -165 29 -11 2 -40 7 -65 11 -25 4
-54 9 -65 11 -37 8 -180 33 -220 39 -39 5 -56 8 -115 20 -14 2 -45 7 -70 10
-25 3 -83 12 -130 20 -99 16 -152 23 -235 30 -33 3 -76 8 -95 10 -19 3 -64 7
-100 10 -36 2 -90 7 -120 10 -136 12 -264 17 -517 20 -150 1 -273 2 -275 0z"/>
<path d="M5448 3161 c-2 -64 -11 -140 -28 -241 -5 -30 -12 -73 -16 -95 -3 -22
-17 -94 -31 -160 -14 -66 -27 -129 -29 -140 -2 -11 -16 -68 -32 -126 l-28
-105 36 -23 c57 -36 74 -53 133 -130 111 -142 227 -362 276 -518 12 -40 26
-73 29 -73 8 0 99 163 155 275 136 275 246 664 282 992 l5 52 -42 27 c-43 27
-213 114 -298 152 -71 32 -319 122 -335 122 -7 0 -16 4 -19 9 -3 5 -17 11 -31
13 -23 5 -25 2 -27 -31z"/>
<path d="M4558 2314 c-2 -1 -28 -5 -58 -9 -130 -15 -322 -70 -645 -184 -462
-163 -1472 -533 -1665 -611 -229 -92 -487 -176 -630 -204 -14 -3 -77 -16 -140
-30 -104 -23 -169 -34 -285 -51 -22 -4 -51 -8 -65 -11 -14 -2 -49 -7 -79 -10
-30 -3 -62 -7 -70 -9 -9 -1 -49 -6 -88 -10 -40 -4 -73 -10 -73 -14 0 -16 193
-218 306 -321 126 -115 373 -294 524 -379 53 -30 234 -120 312 -155 111 -50
355 -132 478 -161 109 -26 237 -48 395 -70 167 -23 548 -23 685 0 14 2 48 6
75 10 149 18 140 15 233 84 591 439 1067 1130 1327 1929 20 62 35 119 32 126
-6 16 -126 54 -221 71 -59 11 -339 18 -348 9z"/>
<path d="M5245 2160 c-3 -5 -13 -33 -22 -62 -77 -261 -257 -663 -418 -933
-204 -343 -485 -683 -753 -914 -34 -30 -61 -56 -59 -57 5 -5 276 90 357 126
410 180 779 446 1069 771 146 164 244 294 237 318 -2 9 -11 45 -20 81 -29 119
-113 316 -184 430 -97 156 -191 265 -207 240z"/>
</g>
</svg>
